<svg xmlns="http://www.w3.org/2000/svg" width="20.152" height="21.467" viewBox="0 0 20.152 21.467">
  <path id="Icon_awesome-calendar-alt" data-name="Icon awesome-calendar-alt" d="M0,19.455a2.09,2.09,0,0,0,2.159,2.013H17.993a2.09,2.09,0,0,0,2.159-2.013V8.05H0Zm14.394-8.218a.524.524,0,0,1,.54-.5h1.8a.524.524,0,0,1,.54.5v1.677a.524.524,0,0,1-.54.5h-1.8a.524.524,0,0,1-.54-.5Zm0,5.367a.524.524,0,0,1,.54-.5h1.8a.524.524,0,0,1,.54.5v1.677a.524.524,0,0,1-.54.5h-1.8a.524.524,0,0,1-.54-.5ZM8.637,11.237a.524.524,0,0,1,.54-.5h1.8a.524.524,0,0,1,.54.5v1.677a.524.524,0,0,1-.54.5h-1.8a.524.524,0,0,1-.54-.5Zm0,5.367a.524.524,0,0,1,.54-.5h1.8a.524.524,0,0,1,.54.5v1.677a.524.524,0,0,1-.54.5h-1.8a.524.524,0,0,1-.54-.5ZM2.879,11.237a.524.524,0,0,1,.54-.5h1.8a.524.524,0,0,1,.54.5v1.677a.524.524,0,0,1-.54.5h-1.8a.524.524,0,0,1-.54-.5Zm0,5.367a.524.524,0,0,1,.54-.5h1.8a.524.524,0,0,1,.54.5v1.677a.524.524,0,0,1-.54.5h-1.8a.524.524,0,0,1-.54-.5ZM17.993,2.683H15.834V.671A.7.7,0,0,0,15.114,0H13.675a.7.7,0,0,0-.72.671V2.683H7.2V.671A.7.7,0,0,0,6.477,0H5.038a.7.7,0,0,0-.72.671V2.683H2.159A2.09,2.09,0,0,0,0,4.7V6.709H20.152V4.7A2.09,2.09,0,0,0,17.993,2.683Z" fill="#b9b9b9"/>
</svg>
