<svg xmlns="http://www.w3.org/2000/svg" xmlns:xlink="http://www.w3.org/1999/xlink" width="216" height="42.425" viewBox="0 0 216 42.425">
  <defs>
    <clipPath id="clip-path">
      <path id="Path_526" data-name="Path 526" d="M164.612,532.9H174.94c3.6,0,4.473,2.463,4.473,5.763v1.441c0,2.508-.8,5.39-3.483,5.39H168.4v4.229h-3.79Zm3.79,8.411h5.889c.888,0,1.23-.79,1.23-1.789v-.651c0-1.138-.409-1.789-1.554-1.789H168.4Z" transform="translate(-164.612 -532.903)" fill="#fff" clip-rule="evenodd"/>
    </clipPath>
    <clipPath id="clip-path-2">
      <rect id="Rectangle_1938" data-name="Rectangle 1938" width="216.974" height="43.395" fill="#fff"/>
    </clipPath>
    <clipPath id="clip-path-3">
      <path id="Path_527" data-name="Path 527" d="M176.26,532.9h13.52v3.9H180.05v2.7h9.218v3.486H180.05v2.695H190v4.043H176.26Z" transform="translate(-176.26 -532.903)" fill="#fff" clip-rule="evenodd"/>
    </clipPath>
    <clipPath id="clip-path-5">
      <path id="Path_528" data-name="Path 528" d="M186.716,532.9h14.443v4.183h-5.326v12.639h-3.79V537.086h-5.327Z" transform="translate(-186.716 -532.903)" fill="#fff" clip-rule="evenodd"/>
    </clipPath>
    <clipPath id="clip-path-7">
      <path id="Path_529" data-name="Path 529" d="M197.657,538.862c0-4.925,2.031-6.088,5.445-6.088h4.455c5.4,0,6.094,1.581,6.061,6.344h-3.79v-.464c0-1.208-.648-1.558-1.775-1.558h-4.131c-2,0-2.374,1.279-2.374,3.37v1.811c0,2.44.376,3.37,2.168,3.37h4.046c1.707,0,2.22-.233,2.22-2.325h3.788V544.9c0,2.835-.751,5.066-4.558,5.066H203.1c-3.414,0-5.445-1.161-5.445-6.088Z" transform="translate(-197.657 -532.774)" fill="none" clip-rule="evenodd"/>
    </clipPath>
    <clipPath id="clip-path-8">
      <rect id="Rectangle_1944" data-name="Rectangle 1944" width="216.974" height="43.395" fill="none"/>
    </clipPath>
    <clipPath id="clip-path-9">
      <path id="Path_530" data-name="Path 530" d="M210.19,538.862c0-4.925,2.031-6.087,5.446-6.087h6.077c3.414,0,5.446,1.161,5.446,6.087v5.019c0,4.925-2.032,6.088-5.446,6.088h-6.077c-3.415,0-5.446-1.163-5.446-6.088Zm3.891,3.417c0,2.439.376,3.369,2.17,3.369H221.1c1.794,0,2.168-.93,2.168-3.369v-1.812c0-2.092-.375-3.369-2.374-3.369h-4.438c-2,0-2.374,1.277-2.374,3.369Z" transform="translate(-210.19 -532.775)" fill="none" clip-rule="evenodd"/>
    </clipPath>
    <clipPath id="clip-path-11">
      <path id="Path_531" data-name="Path 531" d="M223.5,532.9h5.873l7.118,12.223h.035V532.9h3.79v16.823h-5.873L227.327,537.5h-.035v12.221H223.5Z" transform="translate(-223.502 -532.903)" fill="none" clip-rule="evenodd"/>
    </clipPath>
    <clipPath id="clip-path-13">
      <path id="Path_532" data-name="Path 532" d="M236.9,532.9h5.873l7.118,12.223h.033V532.9h3.791v16.823H247.84L240.72,537.5h-.033v12.221H236.9Z" transform="translate(-236.897 -532.903)" fill="none" clip-rule="evenodd"/>
    </clipPath>
    <clipPath id="clip-path-15">
      <path id="Path_533" data-name="Path 533" d="M250.292,532.9h13.52v3.9h-9.731v2.7H263.3v3.486h-9.217v2.695h9.952v4.043H250.292Z" transform="translate(-250.292 -532.903)" fill="none" clip-rule="evenodd"/>
    </clipPath>
    <clipPath id="clip-path-17">
      <path id="Path_534" data-name="Path 534" d="M261.185,538.862c0-4.925,2.031-6.088,5.446-6.088h4.455c5.394,0,6.094,1.581,6.059,6.344h-3.79v-.464c0-1.208-.648-1.558-1.775-1.558H267.45c-2,0-2.374,1.279-2.374,3.37v1.811c0,2.44.376,3.37,2.168,3.37h4.047c1.705,0,2.219-.233,2.219-2.325H277.3V544.9c0,2.835-.751,5.066-4.556,5.066h-6.111c-3.415,0-5.446-1.161-5.446-6.088Z" transform="translate(-261.185 -532.774)" fill="none" clip-rule="evenodd"/>
    </clipPath>
    <clipPath id="clip-path-19">
      <path id="Path_535" data-name="Path 535" d="M273.281,532.9h14.443v4.183H282.4v12.639h-3.79V537.086h-5.326Z" transform="translate(-273.281 -532.903)" fill="none" clip-rule="evenodd"/>
    </clipPath>
    <clipPath id="clip-path-21">
      <path id="Path_536" data-name="Path 536" d="M172.163,551.49l-2.987,1.075-4.6,1.653,2.62,1.07a15.843,15.843,0,1,1,.722-20.3l-3.341,1.562,5.345,1.768,2.505.829,1.8-4.292,1.47-3.5-2.808,1.312a21.214,21.214,0,1,0-.48,24.751l3.288,1.344-1.772-3.648Z" transform="translate(-133.939 -523.499)" fill="none" clip-rule="evenodd"/>
    </clipPath>
    <clipPath id="clip-path-23">
      <path id="Path_537" data-name="Path 537" d="M149.978,535.414c.5,1.742-.1,3.438-1.339,3.79s-2.653-.775-3.153-2.517.1-3.438,1.339-3.79,2.653.774,3.153,2.517" transform="translate(-145.309 -532.832)" fill="#fff" clip-rule="evenodd"/>
    </clipPath>
    <clipPath id="clip-path-25">
      <path id="Path_538" data-name="Path 538" d="M154.537,536.568c-.4,1.766-1.746,2.971-3.006,2.689s-1.953-1.943-1.552-3.71,1.747-2.971,3.006-2.689,1.954,1.943,1.552,3.71" transform="translate(-149.866 -532.817)" fill="#fff" clip-rule="evenodd"/>
    </clipPath>
    <clipPath id="clip-path-27">
      <path id="Path_539" data-name="Path 539" d="M157.67,539.548c-.4,1.766-1.747,2.971-3.006,2.689s-1.954-1.943-1.552-3.71,1.746-2.971,3.006-2.689,1.953,1.943,1.552,3.71" transform="translate(-152.998 -535.797)" fill="#fff" clip-rule="evenodd"/>
    </clipPath>
    <clipPath id="clip-path-29">
      <path id="Path_540" data-name="Path 540" d="M146.913,538.533c.493,1.743-.114,3.438-1.357,3.784s-2.649-.785-3.142-2.53.113-3.438,1.355-3.784,2.649.785,3.143,2.53" transform="translate(-142.242 -535.941)" fill="#fff" clip-rule="evenodd"/>
    </clipPath>
    <clipPath id="clip-path-31">
      <path id="Path_541" data-name="Path 541" d="M145.684,541.773c.626-1.872,2.748-4.2,5.475-4.124a5.81,5.81,0,0,1,3.917,2.063c.349.349,2.595,2.6,1.746,4.685a3.03,3.03,0,0,1-2.359,1.827c-1.852.229-2.527-1.452-3.163-1.452s-2.42,2.2-4.295,1.264a3.464,3.464,0,0,1-1.51-2.436,3.79,3.79,0,0,1,.189-1.827" transform="translate(-145.454 -537.647)" fill="#fff" clip-rule="evenodd"/>
    </clipPath>
  </defs>
  <g id="Group_3645" data-name="Group 3645" transform="translate(-25.337 -33)">
    <g id="Group_1" data-name="Group 1" transform="translate(69.705 46.603)">
      <g id="Group_3584" data-name="Group 3584" clip-path="url(#clip-path)">
        <g id="Group_3583" data-name="Group 3583" transform="translate(-45.003 -14.325)">
          <g id="Group_3582" data-name="Group 3582" clip-path="url(#clip-path-2)">
            <rect id="Rectangle_1937" data-name="Rectangle 1937" width="22.033" height="24.055" transform="translate(41.387 10.708)" fill="#fff"/>
          </g>
        </g>
      </g>
    </g>
    <g id="Group_2" data-name="Group 2" transform="translate(86.554 46.602)">
      <g id="Group_3588" data-name="Group 3588" transform="translate(0)" clip-path="url(#clip-path-3)">
        <g id="Group_3587" data-name="Group 3587" transform="translate(-61.852 -14.325)">
          <g id="Group_3586" data-name="Group 3586" clip-path="url(#clip-path-2)">
            <rect id="Rectangle_1939" data-name="Rectangle 1939" width="20.974" height="24.055" transform="translate(58.236 10.708)" fill="#fff"/>
          </g>
        </g>
      </g>
    </g>
    <g id="Group_3" data-name="Group 3" transform="translate(101.678 46.602)">
      <g id="Group_3592" data-name="Group 3592" transform="translate(0)" clip-path="url(#clip-path-5)">
        <g id="Group_3591" data-name="Group 3591" transform="translate(-76.976 -14.325)">
          <g id="Group_3590" data-name="Group 3590" clip-path="url(#clip-path-2)">
            <rect id="Rectangle_1941" data-name="Rectangle 1941" width="21.674" height="24.055" transform="translate(73.36 10.708)" fill="#fff"/>
          </g>
        </g>
      </g>
    </g>
    <g id="Group_4" data-name="Group 4" transform="translate(117.504 46.416)">
      <g id="Group_3596" data-name="Group 3596" clip-path="url(#clip-path-7)">
        <g id="Group_3595" data-name="Group 3595" transform="translate(-92.802 -14.138)">
          <g id="Group_3594" data-name="Group 3594" clip-path="url(#clip-path-8)">
            <rect id="Rectangle_1943" data-name="Rectangle 1943" width="23.348" height="24.427" transform="translate(89.186 10.523)" fill="#2bb7eb"/>
          </g>
        </g>
      </g>
    </g>
    <g id="Group_5" data-name="Group 5" transform="translate(135.633 46.417)">
      <g id="Group_3600" data-name="Group 3600" clip-path="url(#clip-path-9)">
        <g id="Group_3599" data-name="Group 3599" transform="translate(-110.931 -14.139)">
          <g id="Group_3598" data-name="Group 3598" clip-path="url(#clip-path-8)">
            <rect id="Rectangle_1945" data-name="Rectangle 1945" width="24.201" height="24.427" transform="translate(107.315 10.523)" fill="#2bb7eb"/>
          </g>
        </g>
      </g>
    </g>
    <g id="Group_6" data-name="Group 6" transform="translate(154.889 46.602)">
      <g id="Group_3604" data-name="Group 3604" clip-path="url(#clip-path-11)">
        <g id="Group_3603" data-name="Group 3603" transform="translate(-130.187 -14.325)">
          <g id="Group_3602" data-name="Group 3602" clip-path="url(#clip-path-8)">
            <rect id="Rectangle_1947" data-name="Rectangle 1947" width="24.048" height="24.055" transform="translate(126.571 10.708)" fill="#2bb7eb"/>
          </g>
        </g>
      </g>
    </g>
    <g id="Group_7" data-name="Group 7" transform="translate(174.265 46.602)">
      <g id="Group_3608" data-name="Group 3608" clip-path="url(#clip-path-13)">
        <g id="Group_3607" data-name="Group 3607" transform="translate(-149.563 -14.325)">
          <g id="Group_3606" data-name="Group 3606" clip-path="url(#clip-path-8)">
            <rect id="Rectangle_1949" data-name="Rectangle 1949" width="24.048" height="24.055" transform="translate(145.947 10.708)" fill="#2bb7eb"/>
          </g>
        </g>
      </g>
    </g>
    <g id="Group_8" data-name="Group 8" transform="translate(193.64 46.602)">
      <g id="Group_3612" data-name="Group 3612" clip-path="url(#clip-path-15)">
        <g id="Group_3611" data-name="Group 3611" transform="translate(-168.939 -14.325)">
          <g id="Group_3610" data-name="Group 3610" clip-path="url(#clip-path-8)">
            <rect id="Rectangle_1951" data-name="Rectangle 1951" width="20.974" height="24.055" transform="translate(165.322 10.708)" fill="#2bb7eb"/>
          </g>
        </g>
      </g>
    </g>
    <g id="Group_9" data-name="Group 9" transform="translate(209.397 46.416)">
      <g id="Group_3616" data-name="Group 3616" clip-path="url(#clip-path-17)">
        <g id="Group_3615" data-name="Group 3615" transform="translate(-184.695 -14.138)">
          <g id="Group_3614" data-name="Group 3614" clip-path="url(#clip-path-8)">
            <rect id="Rectangle_1953" data-name="Rectangle 1953" width="23.348" height="24.427" transform="translate(181.079 10.523)" fill="#2bb7eb"/>
          </g>
        </g>
      </g>
    </g>
    <g id="Group_10" data-name="Group 10" transform="translate(226.894 46.602)">
      <g id="Group_3620" data-name="Group 3620" transform="translate(0)" clip-path="url(#clip-path-19)">
        <g id="Group_3619" data-name="Group 3619" transform="translate(-202.192 -14.325)">
          <g id="Group_3618" data-name="Group 3618" clip-path="url(#clip-path-8)">
            <rect id="Rectangle_1955" data-name="Rectangle 1955" width="21.674" height="24.055" transform="translate(198.576 10.708)" fill="#2bb7eb"/>
          </g>
        </g>
      </g>
    </g>
    <g id="Group_11" data-name="Group 11" transform="translate(25.337 33)">
      <g id="Group_3624" data-name="Group 3624" transform="translate(0)" clip-path="url(#clip-path-21)">
        <g id="Group_3623" data-name="Group 3623" transform="translate(-0.635 -0.722)">
          <g id="Group_3622" data-name="Group 3622" clip-path="url(#clip-path-8)">
            <rect id="Rectangle_1957" data-name="Rectangle 1957" width="48.99" height="49.66" transform="translate(-2.981 -2.896)" fill="#2bb7eb"/>
          </g>
        </g>
      </g>
    </g>
    <g id="Group_12" data-name="Group 12" transform="translate(41.783 46.5)">
      <g id="Group_3628" data-name="Group 3628" transform="translate(0)" clip-path="url(#clip-path-23)">
        <g id="Group_3627" data-name="Group 3627" transform="translate(-17.081 -14.222)">
          <g id="Group_3626" data-name="Group 3626" clip-path="url(#clip-path-2)">
            <rect id="Rectangle_1959" data-name="Rectangle 1959" width="12.08" height="13.668" transform="translate(13.465 10.607)" fill="#fff"/>
          </g>
        </g>
      </g>
    </g>
    <g id="Group_13" data-name="Group 13" transform="translate(48.374 46.478)">
      <g id="Group_3632" data-name="Group 3632" clip-path="url(#clip-path-25)">
        <g id="Group_3631" data-name="Group 3631" transform="translate(-23.673 -14.2)">
          <g id="Group_3630" data-name="Group 3630" clip-path="url(#clip-path-2)">
            <rect id="Rectangle_1961" data-name="Rectangle 1961" width="12.017" height="13.714" transform="translate(20.057 10.583)" fill="#fff"/>
          </g>
        </g>
      </g>
    </g>
    <g id="Group_14" data-name="Group 14" transform="translate(52.906 50.788)">
      <g id="Group_3636" data-name="Group 3636" transform="translate(0 0)" clip-path="url(#clip-path-27)">
        <g id="Group_3635" data-name="Group 3635" transform="translate(-28.204 -18.51)">
          <g id="Group_3634" data-name="Group 3634" clip-path="url(#clip-path-2)">
            <rect id="Rectangle_1963" data-name="Rectangle 1963" width="12.017" height="13.714" transform="translate(24.587 14.893)" fill="#fff"/>
          </g>
        </g>
      </g>
    </g>
    <g id="Group_15" data-name="Group 15" transform="translate(37.347 50.997)">
      <g id="Group_3640" data-name="Group 3640" transform="translate(0 0)" clip-path="url(#clip-path-29)">
        <g id="Group_3639" data-name="Group 3639" transform="translate(-12.646 -18.719)">
          <g id="Group_3638" data-name="Group 3638" clip-path="url(#clip-path-2)">
            <rect id="Rectangle_1965" data-name="Rectangle 1965" width="12.074" height="13.672" transform="translate(9.029 15.103)" fill="#fff"/>
          </g>
        </g>
      </g>
    </g>
    <g id="Group_16" data-name="Group 16" transform="translate(41.993 53.464)">
      <g id="Group_3644" data-name="Group 3644" clip-path="url(#clip-path-31)">
        <g id="Group_3643" data-name="Group 3643" transform="translate(-17.291 -21.186)">
          <g id="Group_3642" data-name="Group 3642" clip-path="url(#clip-path-2)">
            <rect id="Rectangle_1967" data-name="Rectangle 1967" width="18.791" height="15.852" transform="translate(13.675 17.57)" fill="#fff"/>
          </g>
        </g>
      </g>
    </g>
  </g>
</svg>
